<?xml version="1.0" encoding="UTF-8" standalone="no"?> <!-- Created with Vectornator for iOS (http://vectornator.io/) --><!DOCTYPE svg PUBLIC "-//W3C//DTD SVG 1.1//EN" "http://www.w3.org/Graphics/SVG/1.1/DTD/svg11.dtd">
<svg style="fill-rule:evenodd;clip-rule:evenodd;stroke-linecap:round;stroke-linejoin:round;" xmlns:vectornator="http://vectornator.io" xmlns:xlink="http://www.w3.org/1999/xlink" xmlns="http://www.w3.org/2000/svg" xml:space="preserve" version="1.1" viewBox="0 0 100 100">
<metadata>
<vectornator:setting key="DisplayWhiteBackground" value="1"/>
<vectornator:setting key="RulersVisible" value="1"/>
<vectornator:setting key="GridSpacing" value="36"/>
<vectornator:setting key="Units" value="Pixels"/>
<vectornator:setting key="DynamicGuides" value="0"/>
<vectornator:setting key="SnapToPoints" value="0"/>
<vectornator:setting key="CMYKEnabledKey" value="0"/>
<vectornator:setting key="SnapToGrid" value="0"/>
<vectornator:setting key="SnapToGuides" value="0"/>
<vectornator:setting key="ShowGrid" value="0"/>
<vectornator:setting key="SnapToEdges" value="0"/>
</metadata>
<defs/>
<g id="Layer 1" vectornator:layerName="Layer 1">
<path d="M43.4995+21.4638C29.6393+22.2488+22.5693+33.7506+23.6245+46.0575C25.561+68.6414+41.4904+75.2763+43.4995+75.2763C46.1574+75.2763+49.0376+74.5944+51.8433+73.3075C51.8523+73.3116+51.8655+73.3034+51.8745+73.3075C51.8836+73.3034+51.8968+73.3116+51.9058+73.3075C54.7115+74.5944+57.5917+75.2763+60.2495+75.2763C61.8851+75.2763+72.6601+70.7146+77.687+56.9013C71.8313+53.6796+67.812+47.5613+67.812+40.4638C67.812+35.1975+70.0132+30.4493+73.5308+27.0263C70.2392+23.8816+65.8283+21.7797+60.2495+21.4638C57.296+21.2965+54.55+21.4441+51.8745+23.4638C49.1991+21.4441+46.453+21.2965+43.4995+21.4638Z" opacity="1" fill="#000000"/>
</g>
<g id="Layer 2" vectornator:layerName="Layer 2">
<path d="M69.9683+1.68251L69.8745+1.74501C53.9374+3.95834+52.6802+18.2161+52.5933+19.7138L52.5308+19.7763C52.558+19.7975+52.6019+19.7486+52.6245+19.7763C52.659+19.8184+52.7195+19.912+52.7808+19.995L52.8433+19.9325C68.7768+17.7182+70.0376+3.46124+70.1245+1.96376L70.1558+1.93251C70.0446+1.89386+70.0298+1.77759+69.9683+1.68251Z" opacity="1" fill="#000000"/>
</g>
</svg>
