<?xml version="1.0" encoding="UTF-8" standalone="no"?> <!-- Created with Vectornator for iOS (http://vectornator.io/) --><!DOCTYPE svg PUBLIC "-//W3C//DTD SVG 1.1//EN" "http://www.w3.org/Graphics/SVG/1.1/DTD/svg11.dtd">
<svg style="fill-rule:evenodd;clip-rule:evenodd;stroke-linecap:round;stroke-linejoin:round;" xmlns:vectornator="http://vectornator.io" xmlns:xlink="http://www.w3.org/1999/xlink" xmlns="http://www.w3.org/2000/svg" xml:space="preserve" version="1.1" viewBox="0 0 100 100">
<metadata>
<vectornator:setting key="DisplayWhiteBackground" value="1"/>
<vectornator:setting key="RulersVisible" value="1"/>
<vectornator:setting key="SnapToEdges" value="0"/>
<vectornator:setting key="Units" value="Pixels"/>
<vectornator:setting key="DynamicGuides" value="0"/>
<vectornator:setting key="SnapToPoints" value="0"/>
<vectornator:setting key="SnapToGrid" value="0"/>
<vectornator:setting key="SnapToGuides" value="0"/>
<vectornator:setting key="ShowGrid" value="0"/>
<vectornator:setting key="GridSpacing" value="36"/>
</metadata>
<defs/>
<g id="Layer 1" vectornator:layerName="Layer 1">
<path d="M42.8125+29.5938C34.1142+29.5938+20.4374+44.5791+22.9375+57.0625C26.1144+72.9251+40.8034+89.6562+42.8125+89.6562C45.4703+89.6563+48.3506+88.9052+51.1562+87.4688C53.9658+88.9098+56.9006+89.6563+59.5625+89.6562C61.4927+89.6562+75.0209+74.2166+78.9062+58.9375C71.9376+56.9923+66.7813+50.7493+66.7812+43.25C66.7812+39.9563+67.8049+36.9123+69.5+34.3438C66.1676+31.4688+62.5789+29.5938+59.5625+29.5938C56.216+29.5938+53.8572+29.6012+51.1875+31.8438C48.512+29.5893+46.1648+29.5938+42.8125+29.5938Z" opacity="1" fill="#000000"/>
</g>
<g id="Layer 2" vectornator:layerName="Layer 2">
<path d="M69.2812+9.8125L69.1875+9.875C53.2504+12.0883+51.9931+26.3461+51.9062+27.8438L51.8438+27.9062C51.871+27.9275+51.9149+27.8786+51.9375+27.9062C51.972+27.9484+52.0325+28.042+52.0938+28.125L52.1562+28.0625C68.0897+25.8482+69.3506+11.5912+69.4375+10.0938L69.4688+10.0625C69.3576+10.0238+69.3428+9.90758+69.2812+9.8125Z" opacity="1" fill="#000000"/>
</g>
</svg>
