<?xml version="1.0" encoding="UTF-8" standalone="no"?>
<!DOCTYPE svg PUBLIC "-//W3C//DTD SVG 1.1//EN" "http://www.w3.org/Graphics/SVG/1.1/DTD/svg11.dtd">
<!-- Created with Vectornator (http://vectornator.io/) -->
<svg height="100%" stroke-miterlimit="10" style="fill-rule:nonzero;clip-rule:evenodd;stroke-linecap:round;stroke-linejoin:round;" version="1.1" viewBox="0 0 100 100" width="100%" xml:space="preserve" xmlns="http://www.w3.org/2000/svg" xmlns:vectornator="http://vectornator.io" xmlns:xlink="http://www.w3.org/1999/xlink">
<defs/>
<g id="Layer-1" vectornator:layerName="Layer 1">
<g opacity="1">
<path d="M41.632 28.1053C24.8335 29.4907 11.6285 43.5358 11.6285 60.6919C11.6285 78.766 26.2805 93.418 44.3547 93.418C62.4289 93.418 77.0731 78.766 77.0731 60.6919C77.0731 57.2942 76.5601 54.0227 75.5993 50.9415C73.7596 51.9895 71.4546 52.127 69.4248 51.0966C67.9299 50.3378 66.8655 49.0795 66.3066 47.6293C64.3693 49.2042 61.6176 49.5924 59.2478 48.3895C57.0584 47.2781 55.7938 45.096 55.7107 42.8046C54.1205 43.329 52.3263 43.25 50.7153 42.4322C47.8891 40.9976 46.5611 37.7767 47.3954 34.8383C46.6447 34.7529 45.8979 34.5565 45.1847 34.1945C42.8335 33.001 41.5283 30.5782 41.632 28.1053ZM29.8261 42.1452C30.1397 42.1213 30.4557 42.1232 30.7724 42.1452C31.6171 42.2041 32.46 42.4282 33.2624 42.8356C36.4722 44.465 37.7541 48.3832 36.1247 51.5931C34.4953 54.803 30.5693 56.0925 27.3594 54.4631C24.1495 52.8337 22.8755 48.9077 24.5049 45.6979C25.5742 43.5914 27.6312 42.3129 29.8261 42.1452ZM29.8183 68.4642C30.1319 68.4403 30.4479 68.4422 30.7647 68.4642C31.6093 68.5231 32.46 68.7472 33.2624 69.1546C36.4722 70.784 37.7541 74.71 36.1247 77.9198C34.4953 81.1297 30.577 82.4115 27.3672 80.7821C24.1573 79.1527 22.8678 75.2267 24.4971 72.0169C25.5664 69.9104 27.6234 68.6318 29.8183 68.4642ZM56.3468 68.4642C56.6604 68.4402 56.9764 68.4422 57.2931 68.4642C58.1377 68.5231 58.9885 68.7472 59.7908 69.1546C63.0007 70.784 64.2825 74.71 62.6531 77.9198C61.0237 81.1297 57.0977 82.4115 53.8879 80.7821C50.678 79.1527 49.3962 75.2267 51.0256 72.0169C52.0949 69.9104 54.1516 68.6327 56.3468 68.4642Z" fill="#dddddd" fill-rule="nonzero" opacity="1" stroke="none"/>
<path d="M39.0568 31.6192C25.256 34.1149 14.7778 46.1711 14.7778 60.6919C14.7778 77.0232 28.0205 90.2687 44.3547 90.2687C60.6861 90.2687 73.9238 77.0261 73.9238 60.6919C73.9238 58.6984 73.7081 56.7665 73.3343 54.8897C71.5579 55.0722 69.7128 54.7831 67.9976 53.9124C66.8976 53.354 65.9594 52.6052 65.1896 51.7405C62.8414 52.5096 60.2043 52.4075 57.8206 51.1975C55.6663 50.1039 54.1302 48.3129 53.2906 46.2564C51.9383 46.2043 50.5703 45.8911 49.288 45.2402C46.085 43.6143 44.1937 40.4547 44.0211 37.111C43.9337 37.0702 43.8445 37.0544 43.7574 37.0102C41.4527 35.8403 39.8524 33.8671 39.0568 31.6192ZM31.3387 40.749C31.6523 40.7251 31.9683 40.7269 32.285 40.749C33.1296 40.8079 33.9726 41.032 34.775 41.4394C37.9848 43.0687 39.2666 46.987 37.6372 50.1968C36.0079 53.4067 32.0819 54.6963 28.872 53.0669C25.6621 51.4375 24.3881 47.5115 26.0175 44.3016C27.0868 42.1952 29.1437 40.9166 31.3387 40.749ZM57.8594 67.068C58.173 67.0439 58.489 67.0459 58.8057 67.068C59.6503 67.1269 60.5011 67.351 61.3034 67.7584C64.5133 69.3877 65.7951 73.3137 64.1657 76.5236C62.5363 79.7335 58.6103 81.0153 55.4004 79.3859C52.1906 77.7565 50.9088 73.8305 52.5382 70.6206C53.6075 68.5141 55.6642 67.2364 57.8594 67.068ZM31.3309 67.0758C31.6445 67.0519 31.9605 67.0537 32.2773 67.0758C33.1219 67.1346 33.9726 67.351 34.775 67.7584C37.9848 69.3877 39.2667 73.3137 37.6372 76.5236C36.0079 79.7335 32.0819 81.0153 28.872 79.3859C25.6621 77.7565 24.3804 73.8305 26.0097 70.6206C27.079 68.5141 29.1357 67.243 31.3309 67.0758Z" fill="#8b8b8b" fill-rule="nonzero" opacity="1" stroke="none"/>
<path d="M73.9882 43.3741C77.7131 45.1748 81.4059 46.37 85.4113 47.5159C85.6849 47.5941 86.5362 47.7759 86.8913 47.5847C87.4835 47.2658 88.2914 44.9232 88.2955 44.5975C88.328 42.0366 88.8143 38.0135 86.2355 36.5097L82.8634 37.5911L73.9882 43.3741Z" fill="#dddddd" fill-rule="nonzero" opacity="1" stroke="none"/>
<path d="M85.6677 39.0037C84.992 39.2204 84.3546 39.4223 83.8215 39.5932C82.4578 40.4818 80.5515 41.722 78.64 42.9675C80.9184 43.8497 83.2583 44.5999 85.753 45.3178C85.7649 45.2902 85.7724 45.2759 85.784 45.248C85.8956 44.9793 85.9911 44.6993 86.0555 44.4956C86.0828 44.4095 86.0922 44.4237 86.0943 44.4645C86.1157 43.102 86.2159 41.6134 86.0633 40.4387C85.9776 39.7796 85.8401 39.3263 85.6677 39.0037Z" fill="#8b8b8b" fill-rule="nonzero" opacity="1" stroke="none"/>
<path d="M51.6284 28.2368C52.8587 24.2866 53.4948 20.4577 54.0359 16.3269C54.0729 16.0447 54.1268 15.1758 53.8852 14.8529C53.4822 14.3144 51.0459 13.8617 50.7233 13.9058C48.1856 14.2522 44.1348 14.3661 43.0289 17.1388L44.5969 20.314L51.6284 28.2368Z" fill="#dddddd" fill-rule="nonzero" opacity="1" stroke="none"/>
<path d="M50.917 16.1055C49.5646 16.2862 48.0864 16.4009 46.9455 16.726C46.3074 16.9079 45.8816 17.121 45.588 17.3388C45.9041 17.9789 46.2016 18.583 46.449 19.0841C47.5311 20.3033 49.0351 21.9986 50.5447 23.6994C51.0805 21.316 51.4678 18.8955 51.809 16.3227C51.7809 16.3153 51.7676 16.3065 51.7392 16.2994C51.457 16.2288 51.159 16.1702 50.948 16.1365C50.8697 16.124 50.8877 16.1133 50.917 16.1055Z" fill="#8b8b8b" fill-rule="nonzero" opacity="1" stroke="none"/>
<path d="M62.7284 35.7048C68.046 33.5469 72.7107 30.8588 77.6152 27.8032C77.9503 27.5944 78.9292 26.8875 79.0627 26.3442C79.2853 25.4384 77.6263 22.4281 77.2951 22.121C74.6902 19.7055 71.0028 15.4631 67.057 16.7179L65.0332 21.1934L62.7284 35.7048Z" fill="#dddddd" fill-rule="nonzero" opacity="1" stroke="none"/>
<path d="M68.5716 18.704C68.089 19.7711 67.5535 20.9596 67.1598 21.83C66.7375 24.4892 66.1067 28.4847 65.5386 32.0613C69.2558 30.2922 72.7642 28.2313 76.4525 25.9334C76.4805 25.916 76.6124 25.809 76.7163 25.7317C76.6274 25.4912 76.5349 25.2369 76.3982 24.9483C76.2139 24.5592 76.0031 24.1725 75.8397 23.8934C75.6932 23.6428 75.801 23.7382 75.801 23.7382C74.4174 22.4552 72.9109 20.8805 71.4261 19.852C70.3071 19.077 69.382 18.7196 68.5716 18.704Z" fill="#8b8b8b" fill-rule="nonzero" opacity="1" stroke="none"/>
<path d="M54.373 32.7351L55.7437 34.0895L54.3893 35.4601L53.0187 34.1058L54.373 32.7351Z" fill="#dddddd" fill-rule="nonzero" opacity="1" stroke="none"/>
<path d="M43.4971 23.9096L44.8677 25.2639L43.5134 26.6346L42.1427 25.2802L43.4971 23.9096Z" fill="#dddddd" fill-rule="nonzero" opacity="1" stroke="none"/>
<path d="M35.8104 18.8258L37.1811 20.1801L35.8268 21.5508L34.4561 20.1965L35.8104 18.8258Z" fill="#dddddd" fill-rule="nonzero" opacity="1" stroke="none"/>
<path d="M61.8613 23.4638L63.232 24.8182L61.8777 26.1888L60.507 24.8345L61.8613 23.4638Z" fill="#dddddd" fill-rule="nonzero" opacity="1" stroke="none"/>
<path d="M70.5781 7.20568L71.9487 8.56001L70.5944 9.93068L69.2237 8.57635L70.5781 7.20568Z" fill="#dddddd" fill-rule="nonzero" opacity="1" stroke="none"/>
<path d="M55.7326 6.58198L57.1033 7.93631L55.749 9.30698L54.3783 7.95265L55.7326 6.58198Z" fill="#dddddd" fill-rule="nonzero" opacity="1" stroke="none"/>
<path d="M55.7102 21.6809L57.0809 23.0352L55.7265 24.4059L54.3559 23.0516L55.7102 21.6809Z" fill="#dddddd" fill-rule="nonzero" opacity="1" stroke="none"/>
<path d="M41.9985 8.36096L43.3692 9.71529L42.0148 11.086L40.6442 9.73164L41.9985 8.36096Z" fill="#dddddd" fill-rule="nonzero" opacity="1" stroke="none"/>
<path d="M59.7258 14.923L61.0964 16.2773L59.7421 17.648L58.3714 16.2937L59.7258 14.923Z" fill="#dddddd" fill-rule="nonzero" opacity="1" stroke="none"/>
<path d="M66.9427 40.6692L68.3134 42.0235L66.9591 43.3942L65.5884 42.0399L66.9427 40.6692Z" fill="#dddddd" fill-rule="nonzero" opacity="1" stroke="none"/>
<path d="M68.5474 34.7855L69.918 36.1398L68.5637 37.5105L67.193 36.1562L68.5474 34.7855Z" fill="#dddddd" fill-rule="nonzero" opacity="1" stroke="none"/>
<path d="M77.6559 32.337L79.0265 33.6913L77.6722 35.062L76.3015 33.7077L77.6559 32.337Z" fill="#dddddd" fill-rule="nonzero" opacity="1" stroke="none"/>
<path d="M84.5502 18.7799L85.9209 20.1343L84.5665 21.505L83.1959 20.1506L84.5502 18.7799Z" fill="#dddddd" fill-rule="nonzero" opacity="1" stroke="none"/>
<path d="M87.0008 31.1305L88.3715 32.4848L87.0171 33.8555L85.6465 32.5012L87.0008 31.1305Z" fill="#dddddd" fill-rule="nonzero" opacity="1" stroke="none"/>
<path d="M84.3545 52.5769L83.0047 53.9511L84.3727 55.307L85.7286 53.9328L84.3545 52.5769Z" fill="#dddddd" fill-rule="nonzero" opacity="1" stroke="none"/>
</g>
</g>
</svg>
