<?xml version="1.0" encoding="UTF-8" standalone="no"?> <!-- Created with Vectornator for iOS (http://vectornator.io/) --><!DOCTYPE svg PUBLIC "-//W3C//DTD SVG 1.1//EN" "http://www.w3.org/Graphics/SVG/1.1/DTD/svg11.dtd">
<svg style="fill-rule:evenodd;clip-rule:evenodd;stroke-linecap:round;stroke-linejoin:round;" xmlns:vectornator="http://vectornator.io" xmlns:xlink="http://www.w3.org/1999/xlink" xmlns="http://www.w3.org/2000/svg" xml:space="preserve" version="1.1" viewBox="0 0 310 78">
<metadata>
<vectornator:setting key="DisplayWhiteBackground" value="1"/>
<vectornator:setting key="RulersVisible" value="1"/>
<vectornator:setting key="SnapToEdges" value="0"/>
<vectornator:setting key="Units" value="Pixels"/>
<vectornator:setting key="DynamicGuides" value="0"/>
<vectornator:setting key="SnapToPoints" value="0"/>
<vectornator:setting key="CMYKEnabledKey" value="0"/>
<vectornator:setting key="SnapToGrid" value="0"/>
<vectornator:setting key="SnapToGuides" value="1"/>
<vectornator:setting key="ShowGrid" value="1"/>
<vectornator:setting key="GridSpacing" value="36"/>
</metadata>
<defs/>
<g id="Layer 1" vectornator:layerName="Layer 1">
<g opacity="1">
<path d="M2.9171+37.9645C2.9171+18.2835+18.8717+2.32896+38.5527+2.32896C58.2337+2.32896+74.1882+18.2835+74.1882+37.9645C74.1882+57.6455+58.2337+73.6001+38.5527+73.6001C18.8717+73.6001+2.9171+57.6455+2.9171+37.9645Z" opacity="1" fill="#e61010"/>
<path d="M119.031+37.9645C119.031+18.2835+134.986+2.32896+154.667+2.32896C174.348+2.32896+190.303+18.2835+190.303+37.9645C190.303+57.6455+174.348+73.6001+154.667+73.6001C134.986+73.6001+119.031+57.6455+119.031+37.9645Z" opacity="1" fill="#e6df10"/>
<path d="M235.146+37.9645C235.146+18.2835+251.1+2.32896+270.781+2.32896C290.462+2.32896+306.417+18.2835+306.417+37.9645C306.417+57.6455+290.462+73.6001+270.781+73.6001C251.1+73.6001+235.146+57.6455+235.146+37.9645Z" opacity="1" fill="#10e61a"/>
</g>
</g>
</svg>
