<?xml version="1.0" encoding="UTF-8" standalone="no"?> <!-- Created with Vectornator for iOS (http://vectornator.io/) --><!DOCTYPE svg PUBLIC "-//W3C//DTD SVG 1.1//EN" "http://www.w3.org/Graphics/SVG/1.1/DTD/svg11.dtd">
<svg style="fill-rule:evenodd;clip-rule:evenodd;stroke-linecap:round;stroke-linejoin:round;" xmlns:vectornator="http://vectornator.io" xmlns:xlink="http://www.w3.org/1999/xlink" xmlns="http://www.w3.org/2000/svg" xml:space="preserve" version="1.1" viewBox="0 0 100 100">
<metadata>
<vectornator:setting key="DynamicGuides" value="1"/>
<vectornator:setting key="CMYKEnabledKey" value="0"/>
<vectornator:setting key="Units" value="Pixels"/>
<vectornator:setting key="RulersVisible" value="1"/>
<vectornator:setting key="SnapToGuides" value="1"/>
<vectornator:setting key="GridSpacing" value="36"/>
</metadata>
<defs/>
<g id="Untitled" vectornator:layerName="Untitled">
<path d="M82.7324+84.984C82.7179+84.984+82.7083+84.9598+82.7324+85.0081L82.7566+84.9985L82.7324+84.984Z" opacity="1" fill="#000000"/>
<path d="M15.0564+85.013C15.0564+84.9937+15.0467+84.984+15.0322+84.984L15.0564+84.984L15.0564+85.013Z" opacity="1" fill="#000000"/>
<path d="M15.0564+17.3031L15.0564+17.3321C15.0564+17.3321+15.0564+17.3031+15.0564+17.3031Z" opacity="1" fill="#000000"/>
<path d="M82.7083+84.984L82.7083+55.9903L92.3728+55.9903L92.3728+84.9936C92.3782+90.3224+88.0612+94.6459+82.7324+94.6485L15.0322+94.6485C9.711+94.6459+5.39719+90.3342+5.39186+85.013L5.39186+17.3031C5.39186+11.9828+9.72158+7.66757+15.0419+7.66757L44.0501+7.66757L44.0501+17.3321L15.0564+17.3321L15.0564+84.984L82.7083+84.984Z" opacity="1" fill="#000000"/>
<path d="M15.0564+17.3031L15.0564+17.3321C15.0564+17.3321+15.0564+17.3031+15.0564+17.3031Z" opacity="1" fill="#000000"/>
<path d="M15.0564+85.013C15.0564+84.9936+15.0467+84.984+15.0322+84.984L15.0564+84.984L15.0564+85.013Z" opacity="1" fill="#000000"/>
<path d="M44.0501+17.3321L15.0564+17.3321L15.0564+84.984L82.7083+84.984L82.7083+55.9903L92.3728+55.9903L92.3728+84.9936C92.3782+90.3224+88.0612+94.6459+82.7324+94.6485L15.0322+94.6485C9.711+94.6459+5.39719+90.3342+5.39186+85.013L5.39186+17.3031C5.39186+11.9828+9.72158+7.66757+15.0419+7.66757L44.0501+7.66757L44.0501+17.3321Z" opacity="1" fill="#007bff"/>
<path d="M82.7083+17.3321L82.7083+31.829C82.7083+34.4977+84.8718+36.6612+87.5405+36.6612C90.2093+36.6612+92.3728+34.4977+92.3728+31.829L92.3728+12.4998C92.3728+9.83106+90.2093+7.66757+87.5405+7.66757L68.2114+7.66757C65.5426+7.66757+63.3792+9.83106+63.3792+12.4998C63.3792+15.1686+65.5426+17.3321+68.2114+17.3321C68.2114+17.3321+82.7083+17.3321+82.7083+17.3321Z" opacity="1" fill="#007bff"/>
<path d="M52.2988+54.5745L90.957+15.9163C92.2131+14.703+92.7169+12.9063+92.2747+11.2168C91.8325+9.52734+90.5131+8.20791+88.8235+7.76568C87.134+7.32345+85.3374+7.82725+84.1241+9.08343L45.4659+47.7416C43.6346+49.6377+43.6608+52.6516+45.5248+54.5156C47.3888+56.3796+50.4027+56.4058+52.2988+54.5745Z" opacity="1" fill="#007bff"/>
</g>
</svg>
