<?xml version="1.0" encoding="UTF-8" standalone="no"?> <!-- Created with Vectornator for iOS (http://vectornator.io/) --><!DOCTYPE svg PUBLIC "-//W3C//DTD SVG 1.1//EN" "http://www.w3.org/Graphics/SVG/1.1/DTD/svg11.dtd">
<svg style="fill-rule:evenodd;clip-rule:evenodd;stroke-linecap:round;stroke-linejoin:round;" xmlns:vectornator="http://vectornator.io" xmlns:xlink="http://www.w3.org/1999/xlink" xmlns="http://www.w3.org/2000/svg" xml:space="preserve" version="1.1" viewBox="0 0 100 100">
<metadata>
<vectornator:setting key="DisplayWhiteBackground" value="0"/>
<vectornator:setting key="RulersVisible" value="1"/>
<vectornator:setting key="SnapToEdges" value="0"/>
<vectornator:setting key="Units" value="Pixels"/>
<vectornator:setting key="DynamicGuides" value="0"/>
<vectornator:setting key="SnapToPoints" value="0"/>
<vectornator:setting key="CMYKEnabledKey" value="0"/>
<vectornator:setting key="SnapToGrid" value="0"/>
<vectornator:setting key="SnapToGuides" value="0"/>
<vectornator:setting key="ShowGrid" value="0"/>
<vectornator:setting key="GridSpacing" value="36"/>
</metadata>
<defs/>
<g id="Layer 1" vectornator:layerName="Layer 1">
<path d="M50+14.375C30.3321+14.375+14.375+30.3321+14.375+50C14.375+50.5988+14.5333+51.1585+14.5625+51.75C15.52+34.9013+30.5728+17.9443+47.6613+17.9443C65.3701+17.9443+81.8803+33.4847+81.8803+51.1935C81.8803+68.2819+65.0987+84.48+48.25+85.4375C48.8415+85.4667+49.4012+85.625+50+85.625C69.6679+85.625+85.625+69.6679+85.625+50C85.625+30.3321+69.6679+14.375+50+14.375Z" opacity="1" fill="#d5711e"/>
</g>
<g id="Layer 3" vectornator:layerName="Layer 3">
<g opacity="1">
<path d="M61.1867+34.078C39.2115+35.5279+28.45+59.1565+24.6757+69.6653L28.8647+73.6304C40.6625+70.3719+67.9269+60.1832+67.041+34.3098C67.0406+34.2977+67.0395+34.2641+67.039+34.252C65.0181+34.0236+63.0493+33.9551+61.1867+34.078Z" opacity="1" fill="#c1c3cf"/>
<path d="M19.4995+57.8861L9.90715+68.2906L20.6116+63.4411L33.6208+65.0255L19.4995+57.8861Z" opacity="1" fill="#c1c3cf"/>
<path d="M41.3531+79.4729L31.0345+89.1575L35.7885+78.4103L34.0882+65.4158L41.3531+79.4729Z" opacity="1" fill="#c1c3cf"/>
</g>
</g>
<g id="Layer 4" vectornator:layerName="Layer 4">
<path d="M10.2056+86.8413C10.2056+86.8413+21.1182+86.5189+27.0712+82.3935C38.4628+74.499+21.1636+86.1367+14.9772+82.5522C12.0557+76.0263+25.4302+60.0319+16.3933+70.5403C11.671+76.0318+10.2149+86.8516+10.2056+86.8413Z" opacity="1" fill="#d5711e"/>
</g>
</svg>
