<?xml version="1.0" encoding="UTF-8" standalone="no"?> <!-- Created with Vectornator for iOS (http://vectornator.io/) --><!DOCTYPE svg PUBLIC "-//W3C//DTD SVG 1.1//EN" "http://www.w3.org/Graphics/SVG/1.1/DTD/svg11.dtd">
<svg style="fill-rule:evenodd;clip-rule:evenodd;stroke-linecap:round;stroke-linejoin:round;" xmlns:vectornator="http://vectornator.io" xmlns:xlink="http://www.w3.org/1999/xlink" xmlns="http://www.w3.org/2000/svg" xml:space="preserve" version="1.1" viewBox="0 0 120 120">
<metadata>
<vectornator:setting key="DisplayWhiteBackground" value="1"/>
<vectornator:setting key="RulersVisible" value="1"/>
<vectornator:setting key="GridSpacing" value="36"/>
<vectornator:setting key="Units" value="Pixels"/>
<vectornator:setting key="DynamicGuides" value="1"/>
<vectornator:setting key="SnapToPoints" value="1"/>
<vectornator:setting key="CMYKEnabledKey" value="0"/>
<vectornator:setting key="SnapToGrid" value="0"/>
<vectornator:setting key="SnapToGuides" value="1"/>
<vectornator:setting key="ShowGrid" value="0"/>
<vectornator:setting key="SnapToEdges" value="0"/>
</metadata>
<defs/>
<g id="Layer 1" vectornator:layerName="Layer 1">
<path d="M22.7041+15.7659L97.2959+15.7659C101.651+15.7659+105.181+19.2961+105.181+23.6508L105.181+96.3492C105.181+100.704+101.651+104.234+97.2959+104.234L22.7041+104.234C18.3494+104.234+14.8193+100.704+14.8193+96.3492L14.8193+23.6508C14.8193+19.2961+18.3494+15.7659+22.7041+15.7659Z" opacity="1" fill="#ffffff"/>
</g>
<g id="Layer 2" vectornator:layerName="Layer 2">
<g opacity="1">
<path d="M28.0714+54.8374L91.9449+54.939L91.9286+65.1626L28.0552+65.0609L28.0714+54.8374Z" opacity="1" fill="#800080"/>
<path d="M28.0714+31.7747L91.9449+31.8764L91.9286+42.1L28.0552+41.9983L28.0714+31.7747Z" opacity="1" fill="#800080"/>
<path d="M28.0714+77.9L91.9449+78.0017L91.9286+88.2253L28.0552+88.1236L28.0714+77.9Z" opacity="1" fill="#800080"/>
</g>
</g>
</svg>
